<svg xmlns="http://www.w3.org/2000/svg" version="1.1" xmlns:xlink="http://www.w3.org/1999/xlink" width="1000" height="1000"><g clip-path="url(#SvgjsClipPath1060)"><rect width="1000" height="1000" fill="#ffffff"></rect><g transform="matrix(4.2682926829268295,0,0,4.2682926829268295,150,150)"><svg xmlns="http://www.w3.org/2000/svg" version="1.1" xmlns:xlink="http://www.w3.org/1999/xlink" width="164" height="164"><svg version="1.2" xmlns="http://www.w3.org/2000/svg" viewBox="0 0 164 164" width="164" height="164"><style>.a{opacity:.99}</style><path class="a" d="m112 53.1c-0.3 1.1-3.5 7.6-7.1 14.3-6.5 11.9-6.6 12.2-6 14.7 0.2 0.9 0.6 2.1 1 3.1h-0.1c1.1 2.7 2.8 6.6 4.7 10.9 3.3 7.5 6.1 14.4 6.2 15.4 0.2 1.5 0 1.7-1.2 1.6-0.8-0.1-6.7-3.1-13.1-6.6-10.3-5.5-12-6.3-14.2-6.1-1.4 0.2-4.6 1.2-7.1 2.3-2.5 1.2-8.9 4.1-14.1 6.6-9.3 4.3-9.6 4.3-9.1 2.3 0.3-1.2 3.5-7.6 7.2-14.3 6.4-11.9 6.5-12.3 5.9-14.7-0.2-0.9-0.6-2.1-1-3.2l0.1 0.1c-1.1-2.7-2.8-6.7-4.7-10.9-3.3-7.5-6.1-14.4-6.2-15.4-0.2-1.6 0-1.8 1.2-1.6 0.8 0.1 6.7 3 13.1 6.5 10.3 5.6 12 6.3 14.2 6.1 1.4-0.1 4.6-1.2 7.1-2.3 2.5-1.1 8.9-4.1 14.2-6.5 9.2-4.3 9.5-4.4 9-2.3zm-12.6 13.5c-0.4-0.1-1.2 0.7-1.7 1.6-0.5 0.9-1.3 1.6-1.7 1.6-0.5 0-1.4 0.8-2 1.9-0.5 1.1-1.3 1.8-1.7 1.6-0.4-0.2-1.2 0.7-1.9 2-0.7 1.2-1.6 2.1-1.9 1.9-0.4-0.2-1 0.3-1.4 1-0.4 0.7-0.4 1.5-0.1 1.7 0.4 0.2 0.8 0.1 0.9-0.2 0.2-0.3 1.4-0.5 2.7-0.5 1.3 0 2.9-0.1 3.6-0.3q1.3-0.4 5.3-7.6c2.3-4.1 3.8-7.4 3.6-7.9-0.3-0.4-1 0.1-1.6 1.2-0.7 1.1-1.6 2-2.1 2zm-33.2-3.3c1.1 0.6 1.9 1.5 1.9 1.9 0 0.5 0.8 1.3 1.7 1.8 0.9 0.5 1.7 1.3 1.6 1.7 0 0.5 0.8 1.3 1.9 1.9 1.1 0.6 1.8 1.4 1.6 1.7-0.2 0.4 0.7 1.3 1.9 2 1.3 0.7 2.3 1.7 2.2 2.2-0.1 0.5 0.1 0.5 0.5-0.1 0.3-0.7 0.4-1.3 0.2-1.4-0.3-0.2-0.4-1.6-0.3-3.2l0.3-2.8c-11.9-6.5-14.9-7.8-15.1-7.4-0.2 0.3 0.5 1.1 1.6 1.7zm-1.7 34.8c0.4 0 1.2-0.7 1.7-1.6 0.5-0.9 1.3-1.6 1.7-1.6 0.5 0 1.4-0.9 2-2 0.5-1.1 1.3-1.8 1.7-1.6 0.4 0.2 1.2-0.7 1.9-1.9 0.7-1.3 1.6-2.2 1.9-2 0.4 0.2 1-0.2 1.4-0.9 0.4-0.7 0.4-1.5 0.1-1.7-0.4-0.2-0.8-0.1-0.9 0.1-0.2 0.3-1.4 0.5-2.7 0.5-1.3 0-2.9 0.2-3.6 0.4q-1.3 0.4-5.3 7.5c-2.3 4.2-3.8 7.5-3.6 7.9 0.3 0.5 1 0 1.6-1.2 0.7-1 1.6-1.9 2.1-1.9zm33.2 3.3c-1.1-0.6-1.9-1.5-1.9-2 0-0.4-0.8-1.2-1.7-1.7-0.9-0.6-1.7-1.3-1.6-1.8 0-0.4-0.8-1.3-1.9-1.9-1.1-0.6-1.8-1.3-1.6-1.7 0.2-0.4-0.7-1.2-1.9-1.9-1.3-0.7-2.3-1.7-2.2-2.3 0.1-0.5-0.1-0.4-0.5 0.2-0.3 0.6-0.4 1.2-0.2 1.4 0.3 0.1 0.4 1.5 0.3 3.1l-0.3 2.9c11.9 6.5 14.9 7.8 15.1 7.4 0.2-0.4-0.5-1.1-1.6-1.7zm42.7-79.3l2.1 2.1-3.7 3.8c28.9 30.5 28.7 78.3-0.5 108.6l3.2 3.2-2.2 2.2-3.2-3.2c-30.5 29.4-78.8 29.4-109.3-0.1l-3.4 3.4-2.1-2.1 3.4-3.4c-29.5-30.8-29.3-79.4 0.7-109.8l-4-4 2.2-2.1 3.9 4c30.8-29 78.9-28.6 109.2 1.1zm-13.5 17.7c11 11.8 16.6 26.7 16.7 41.7h10.4c-0.1-17.6-6.7-35.3-19.7-49.1zm16.7 44.7c-0.6 14.5-6.4 28.9-17.3 40.2l7.5 7.5c12.9-13.4 19.6-30.5 20.2-47.7zm-19.4 42.3c-10.8 10.5-25.5 17-41.7 17.3v10.4c17.8-0.2 35.4-7 49.2-20.2zm-44.7 17.3c-15.9-0.4-30.3-6.8-41-17l-7.2 7.1c13.5 13 30.8 19.8 48.2 20.3zm-43.2-19.2c-10.2-10.8-16.6-25.3-16.8-41.3h-10.4c0.4 17.5 7.1 34.9 20.1 48.5zm-16.9-44.3q0.2-6.1 1.5-11.8c2.3-11.1 7.6-21.7 16.1-30.4l-7.2-7.2c-13.5 13.8-20.5 31.5-20.8 49.4zm19.7-44.3c11.6-10.9 26.3-16.5 41.2-16.7v-10.1c-17.4 0.3-34.8 6.8-48.4 19.6zm44.2-16.7c15 0.5 29.9 6.5 41.4 18q0 0.1 0.1 0.1l7.4-7.5c-13.7-13.3-31.2-20.2-48.9-20.7zm38.4 25.4c9.5 10.3 14.4 23.4 14.5 36.5h3.6c-0.2-15.1-6.1-28.8-15.6-39zm3.6 69.4q-1.9 2.6-4.2 5l2.6 2.6c7.2-7.4 12-16.3 14.5-25.6q1.4-5.8 1.7-11.9h-3.8c-0.5 10.5-4.1 21-10.8 29.9zm-84.1 9.8c10.8 10.1 24.5 15.4 38.3 15.8v-3.3c-13.9-0.4-26.5-6-35.9-14.9zm80.3-0.1l-2.5-2.5q-1.4 1.3-2.9 2.5c-7.6 6.3-16.9 10.6-27.1 12q-3.2 0.5-6.5 0.6v3.3c14-0.2 28-5.5 39-15.9zm-79.7-85.1l2.5 2.5c10.2-9.5 23.1-14.3 36-14.5v-3.3c-13.7 0.2-26.3 5.2-36.2 13.3q-1.2 1-2.3 2zm71.9-1.1q3.1 2.2 5.9 4.9l2.5-2.5c-6.4-6.3-14.3-11.1-23.2-13.9-4.9-1.6-10.1-2.5-15.6-2.7v3.3c10.8 0.4 21.4 4.1 30.4 10.9zm-77.6 80.9q1.4 1.7 3 3.3l2.4-2.4c-8.9-9.4-14.5-22.1-14.7-36.1h-3.6c0.3 12.5 4.6 24.9 12.9 35.2zm-8.1-47.6c1.8-10.1 6.6-19.7 14.2-27.6l-2.5-2.5c-10.7 11-16.2 25.2-16.5 39.5h3.6q0.2-4.8 1.2-9.4zm88-20.5l-2.1-2.1 3.2-3.2c-8.8-8.6-20.6-14-33.6-14.6q-0.1 0-0.2 0v12.1h-3v-12.2c-12.9 0.3-24.6 5.2-33.5 13.2l3.2 3.3-2.1 2.1-3.2-3.3c-9.4 9.7-14.2 22.1-14.5 34.6h12.2v3h-12.2c0.4 12.1 5 24.1 13.9 33.6l3.7-3.8 2.1 2.2-3.7 3.7c9.4 8.7 21.3 13.2 33.3 13.6v-12.4h3v12.5c12.2-0.3 24.4-4.9 34-13.9l-3.7-3.7 2.1-2.1 3.8 3.7c6.5-6.8 10.8-14.8 12.9-23.4q1-4.4 1.1-9.1h-12.7v-3h12.8c-0.3-13.1-5.4-25-13.6-34z"></path></svg></svg></g></g><defs><clipPath id="SvgjsClipPath1060"><rect width="1000" height="1000" x="0" y="0" rx="500" ry="500"></rect></clipPath></defs></svg>